<?xml version="1.0" standalone="no"?>
<!DOCTYPE svg PUBLIC "-//W3C//DTD SVG 1.1//EN" "http://www.w3.org/Graphics/SVG/1.1/DTD/svg11.dtd" >
<svg xmlns="http://www.w3.org/2000/svg" xmlns:xlink="http://www.w3.org/1999/xlink" version="1.1">
<metadata>
Created by FontForge 20161013 at Wed May 30 23:28:42 2007
 By ,,,
(C)1999 House Industries/Brand Design Co., Inc.
</metadata>
<defs>
<font id="HouseSampler-HouseSlant" horiz-adv-x="463" >
  <font-face 
    font-family="HouseSampler-HouseSlant"
    font-weight="400"
    font-stretch="normal"
    units-per-em="1000"
    panose-1="2 0 6 6 5 0 0 2 0 4"
    ascent="800"
    descent="-200"
    x-height="630"
    cap-height="627"
    bbox="-88.7692 -184 696.524 746.891"
    underline-thickness="20"
    underline-position="-173"
    unicode-range="U+0020-2026"
  />
<missing-glyph horiz-adv-x="500" 
 />
    <glyph glyph-name=".notdef" horiz-adv-x="500" 
 />
    <glyph glyph-name=".notdef" horiz-adv-x="500" 
 />
    <glyph glyph-name=".null" horiz-adv-x="0" 
 />
    <glyph glyph-name="nonmarkingreturn" horiz-adv-x="333" 
 />
    <glyph glyph-name="space" unicode=" " horiz-adv-x="241" 
 />
    <glyph glyph-name="exclam" unicode="!" horiz-adv-x="267" 
d="M285 634q25 -21 12 -53q-99 -249 -154 -415q-5 -16 -12.5 -20t-22.5 0q-29 7 -58 25q-14 9 -17 20.5t3 33.5q39 146 136 423q7 19 16.5 23.5t27.5 -1.5q43 -14 69 -36zM-23 53q6 37 35.5 58.5t66.5 8.5q33 -12 41 -41t-3 -50q-6 -20 -27.5 -40t-49.5 -21
q-31 -1 -50.5 23.5t-12.5 61.5z" />
    <glyph glyph-name="quotedbl" unicode="&#x22;" horiz-adv-x="374" 
d="M199 502q-17 -25 -39 -29q-28 -4 -46 -2q-27 3 -16 30q56 127 88 221q10 30 38 12q30 -20 40 -32q16 -19 6 -53q-23 -77 -71 -147zM341 477q-20 -23 -42 -24q-23 -2 -46 3q-29 6 -13 32q74 124 113 209q14 29 39 8q25 -20 36 -36q14 -21 0 -54q-33 -77 -87 -138z" />
    <glyph glyph-name="numbersign" unicode="#" horiz-adv-x="478" 
d="M467 384q-35 -3 -72 -6q-6 -16 -18 -48.5t-18 -48.5q25 -1 36 -9.5t20 -28.5q10 -25 -16 -27q-17 -2 -66 -8q-26 -73 -43 -126q-8 -25 -30 -11q-44 27 -27 88q1 3 4.5 15t5.5 19q-12 -3 -40 -8.5t-43 -8.5q-26 -82 -35 -109q-5 -14 -11 -16t-18 5q-46 27 -30 87l3 12
q-23 -4 -37 6t-26 34q-7 13 -4.5 20t17.5 11q29 8 76 18q5 15 14.5 46t14.5 46q0 -1 -3 -1q-29 -6 -44.5 4t-28.5 37q-7 13 -4 19.5t19 10.5q33 8 92 18q25 74 54 142q12 27 35 9q46 -37 26 -91q-3 -8 -9.5 -24t-8.5 -22q54 6 78 8q27 72 56 139q12 28 35 8q45 -38 23 -91
q-3 -7 -10 -24t-11 -27q29 -1 41 -10t20 -31q5 -13 2 -19t-19 -7zM301 366q-53 -8 -80 -13q-18 -50 -32 -91q50 7 80 11q12 38 32 93z" />
    <glyph glyph-name="dollar" unicode="$" horiz-adv-x="369" 
d="M216 557q34 86 45 109q13 27 36 8q41 -31 25 -88q-10 -33 -20 -60q22 -20 25 -23q24 -28 20 -72q-8 -69 -35 -120q-10 -19 -30 -11q-56 24 -48 79q1 6 4 17.5t5 21l4 19t1 16t-4 8.5q-11 6 -36.5 -19t-37.5 -57t8 -62q11 -13 28 -27.5t31 -25t29 -25t21.5 -27t9.5 -31
t-7 -37.5q-14 -32 -47 -59t-80 -28q-11 0 -17 1q-20 -60 -34 -109q-6 -26 -30 -11q-39 25 -25 105q2 9 5.5 23l4.5 18q-31 19 -60 56q-30 38 -4 55q18 11 40 8.5t36 -13.5q34 -26 68.5 -35t44.5 3q10 8 -6 23.5t-50 40t-51 42.5q-58 60 -26 137q18 39 49 77.5t67 59.5
q19 12 41 13z" />
    <glyph glyph-name="percent" unicode="%" horiz-adv-x="593" 
d="M522 508q-75 -85 -209.5 -252.5t-191.5 -248.5q-10 -12 -15.5 -11.5t-15.5 11.5q-36 41 0 92q99 145 308 397q-56 -32 -105 -12q-6 -49 -25.5 -94.5t-50.5 -71.5q-30 -24 -69 -18q-31 7 -50 22q-17 14 -28 41q-17 54 11.5 131.5t81.5 116.5q26 19 54 12q36 -9 54 -28
q9 -10 20 -34q14 -28 49 -31q30 -2 74 18t78 57q20 21 35 -3q32 -52 -5 -94zM527 234q3 -56 -19.5 -122.5t-63.5 -98.5q-32 -25 -69 -18q-28 5 -50 22q-20 16 -26 41q-17 53 13.5 130.5t84.5 117.5q27 20 55 12q33 -8 53 -28q20 -22 22 -56zM220 561q-9 5 -30.5 -25
t-33.5 -63q-16 -44 -19.5 -76t8.5 -38q12 -5 29.5 18.5t32.5 68.5q13 40 17.5 74t-4.5 41zM453 256q-9 5 -31 -25t-35 -63q-17 -44 -21.5 -76.5t7.5 -38.5q11 -5 29 19t35 68q14 38 19.5 73.5t-3.5 42.5z" />
    <glyph glyph-name="ampersand" unicode="&#x26;" horiz-adv-x="519" 
d="M313 47q-48 -33 -102 -50q-31 -11 -56 -13.5t-58.5 8t-63.5 39.5q-99 95 -1 205q37 42 107 85q-9 16 -16 38q-19 53 -17 93.5t28 84.5q22 36 64 65t85 39q36 12 72 2.5t67 -51.5q40 -53 37.5 -108.5t-46.5 -102.5q-36 -40 -129 -97q26 -49 53 -90q37 29 65 54q33 30 43 2
q17 -48 -29 -110q-14 -18 -22 -26q24 -32 39 -50q12 -14 11 -22t-14 -17q-25 -19 -47 -23q-24 -5 -54 27q-4 4 -16 18zM239 380q49 29 76 53q24 21 34 50.5t-6 61.5q-28 -7 -57 -26.5t-43 -42.5q-24 -40 -6 -90zM247 135q-28 41 -56 88q-35 -26 -56.5 -53t-24.5 -43t1 -26
q9 -14 47 -4.5t89 38.5z" />
    <glyph glyph-name="quotesingle" unicode="'" horiz-adv-x="212" 
d="M189 477q-20 -23 -42 -24q-22 -2 -46 3q-28 6 -12 32q79 139 112 209q14 29 39 8q25 -20 36 -36q14 -21 0 -54q-33 -77 -87 -138z" />
    <glyph glyph-name="parenleft" unicode="(" horiz-adv-x="243" 
d="M222 677q23 26 43 -4q47 -70 4 -136q-51 -77 -83 -170t-39.5 -190.5t20.5 -182.5q4 -14 1 -18t-17 -6q-63 -6 -87 62q-52 144 -6.5 328t164.5 317z" />
    <glyph glyph-name="parenright" unicode=")" horiz-adv-x="271" 
d="M249 558q14 -141 -41.5 -304.5t-148.5 -254.5q-39 -38 -101 -32q-15 1 -17.5 10t7.5 19q96 112 147 300.5t24 342.5q-3 20 2.5 28.5t26.5 4.5q45 -9 70.5 -39.5t30.5 -74.5z" />
    <glyph glyph-name="asterisk" unicode="*" horiz-adv-x="475" 
d="M449 421q-40 -8 -105 -25l37.5 -37.5t39.5 -40.5q11 -12 10 -17.5t-14 -13.5q-44 -28 -91 14q-24 21 -44 41q-5 -17 -16 -52.5t-17 -55.5q-4 -14 -10.5 -16t-19.5 6q-45 25 -30 86q7 28 11 41q-40 -14 -58 -20q-52 -18 -84 34q-9 13 -6.5 19.5t17.5 12.5q57 22 117 41
q-44 49 -78 92q-18 22 8 34q56 25 93 -19l17.5 -21t19.5 -22q21 64 47 122q12 28 34 9q47 -38 26 -91q-15 -39 -24 -64q23 5 48 9q63 8 85 -37q13 -25 -13 -29z" />
    <glyph glyph-name="plus" unicode="+" horiz-adv-x="488" 
d="M409 263q-87 -2 -149 -8q-30 -92 -44 -146q-4 -16 -10 -18.5t-19 4.5q-27 14 -45 28q-21 15 -15 42q8 38 18 77q-26 -3 -65 -11q-15 -3 -23 0t-17 15q-20 30 -27 63q-5 24 27 30q51 11 140 18q30 89 51 133q14 29 35 19q32 -14 52 -40q10 -12 10.5 -20.5t-5.5 -22.5
q-18 -43 -25 -62q47 2 79 0q27 -1 37 -25q8 -20 15 -51q3 -14 -1.5 -19.5t-18.5 -5.5z" />
    <glyph glyph-name="comma" unicode="," horiz-adv-x="209" 
d="M25 -102q-21 -21 -43 -22q-24 -1 -56 11q-24 9 -9 34q60 99 101 173q14 26 41 10q35 -22 52 -43q16 -19 0 -47q-32 -60 -86 -116z" />
    <glyph glyph-name="hyphen" unicode="-" horiz-adv-x="395" 
d="M48 342q105 22 240 22q29 0 38 -26q7 -20 13 -54q2 -15 -3.5 -20t-21.5 -6q-125 -7 -222 -27q-28 -6 -42 19q-16 27 -24 54q-9 32 22 38z" />
    <glyph glyph-name="hyphen" unicode="&#xad;" horiz-adv-x="395" 
d="M48 342q105 22 240 22q29 0 38 -26q7 -20 13 -54q2 -15 -3.5 -20t-21.5 -6q-125 -7 -222 -27q-28 -6 -42 19q-16 27 -24 54q-9 32 22 38z" />
    <glyph glyph-name="period" unicode="." horiz-adv-x="221" 
d="M-13 61q6 37 35.5 58.5t66.5 8.5q22 -8 33 -24.5t10 -33.5t-6 -33q-9 -22 -29 -40.5t-47 -19.5q-32 -1 -51 23t-12 61z" />
    <glyph glyph-name="slash" unicode="/" horiz-adv-x="354" 
d="M397 594q12 -15 11.5 -24.5t-10.5 -25.5q-55 -81 -172.5 -272.5t-172.5 -289.5q-8 -15 -16.5 -17.5t-22.5 6.5q-26 16 -42 35q-19 19 -1 57q39 79 157 282.5t173 284.5q20 30 47 9q33 -27 49 -45z" />
    <glyph glyph-name="zero" unicode="0" horiz-adv-x="457" 
d="M409 584q36 -36 39 -94q7 -111 -37 -247.5t-123 -213.5q-51 -50 -127 -42q-57 7 -95 35q-36 25 -50 70q-17 77 -2 170t65.5 189t117.5 149q22 17 51 25t53 4q75 -11 108 -45zM309 517q-23 8 -66.5 -54t-72.5 -138t-34 -146.5t21 -84.5q26 -10 63.5 45t66.5 143
q25 74 33.5 147.5t-11.5 87.5z" />
    <glyph glyph-name="one" unicode="1" horiz-adv-x="258" 
d="M277 543q-35 -96 -88 -262.5t-82 -273.5q-4 -16 -11 -20.5t-23 0.5q-37 11 -60 27q-24 17 -14 56q36 164 113 399q-24 15 -27.5 23t6.5 29q21 36 61 88q13 16 22.5 19t25.5 -2q38 -13 64 -35q14 -12 17 -21t-4 -27z" />
    <glyph glyph-name="two" unicode="2" horiz-adv-x="413" 
d="M163 119q45 9 105 11q27 1 41 -26q15 -28 20 -56q4 -15 -1 -20t-20 -7q-133 -12 -234 -38q-43 -10 -59 11q-29 34 -45 63q-19 38 8 58q119 94 239 232t100 157q-19 18 -113 -69q-22 -19 -56.5 -21t-58.5 10q-33 15 4 69q35 53 83 89t95 46q52 11 95 -15t61 -63
q11 -23 13.5 -46t-4 -46t-16.5 -44t-27 -48q-37 -58 -101 -126.5t-129 -120.5z" />
    <glyph glyph-name="three" unicode="3" horiz-adv-x="433" 
d="M288 309q33 -10 54 -32q30 -31 38 -68.5t-2 -71.5t-34 -66q-68 -91 -190 -93q-97 0 -170 85q-38 44 -7 64q23 14 47.5 12t43.5 -14q51 -32 86.5 -29t67.5 36q26 28 32 61t-7 42q-18 18 -64 12q-28 -4 -54.5 14t-40.5 53q-13 31 14 41q48 17 87.5 36t65.5 35.5t42.5 32
t22 27.5t0.5 20q-13 23 -89 -27q-30 -18 -63 -14t-55 25q-20 20 0 44q25 31 66 58.5t83 37.5q95 23 147 -57q24 -37 27 -76.5t-10 -69.5t-35 -52q-40 -38 -103 -66z" />
    <glyph glyph-name="four" unicode="4" horiz-adv-x="474" 
d="M385 307q26 -1 35 -28q9 -26 12 -53q2 -16 -3 -22t-21 -7q-10 -1 -30.5 -2.5t-30.5 -1.5q-34 -103 -60 -192q-4 -16 -11.5 -20.5t-23.5 0.5q-32 9 -56 28q-22 18 -13 56q7 29 33 115q-51 -6 -113 -17q-34 -7 -50 14q-23 26 -46 68q-15 27 8 60q49 72 133.5 168t146.5 150
q15 13 25.5 15t26.5 -4q16 -5 52.5 -26t51.5 -34q14 -12 16.5 -21.5t-4.5 -26.5q-45 -120 -78 -219zM130 288q33 4 125 13q30 89 68 194q-94 -88 -193 -207z" />
    <glyph glyph-name="five" unicode="5" horiz-adv-x="393" 
d="M259 484q-32 -61 -59 -127q56 0 103 -33q42 -31 47 -87t-32 -132q-22 -43 -68 -78.5t-113 -37.5q-96 -2 -142 77q-19 31 -19.5 44t13.5 21q23 14 51 12.5t44 -15.5q69 -61 117 5q22 31 29 72t-4 48q-10 7 -35 6t-45 -7q-21 -7 -27 -6t-17 11q-24 20 -38 34q-18 18 -5 54
q34 99 98 228q16 31 50 37q84 14 182 17q34 2 43 -27q5 -13 10 -64q2 -16 -3 -22.5t-22 -8.5q-58 -6 -158 -21z" />
    <glyph glyph-name="six" unicode="6" horiz-adv-x="408" 
d="M226 378q32 2 63 -13q44 -20 58.5 -49t12.5 -71q-4 -71 -40.5 -137t-82.5 -99q-68 -50 -159 -6q-102 49 -84 168q14 98 78 221t184 227q16 13 25 16t28 0q52 -11 78 -30q28 -22 2 -44q-89 -75 -163 -183zM137 221q-45 -108 -14 -127q19 -11 44.5 9.5t48.5 64.5
q20 39 24 68.5t-12 39.5q-16 8 -43 -8t-48 -47z" />
    <glyph glyph-name="seven" unicode="7" horiz-adv-x="429" 
d="M312 508q-91 -10 -135 -17q-36 -7 -54 18q-20 31 -31 63q-5 14 -2.5 20t15.5 9q98 26 268 32q34 0 50 -26q14 -21 36 -62q16 -34 -7 -64q-175 -226 -319 -491q-7 -15 -15.5 -17t-21.5 7q-32 21 -51 48q-17 23 1 58q102 203 266 422z" />
    <glyph glyph-name="eight" unicode="8" horiz-adv-x="436" 
d="M428 404q-32 -47 -121 -101q46 -39 59 -80t0.5 -77.5t-46.5 -79.5q-33 -42 -75 -63.5t-83.5 -21t-82.5 16.5q-54 22 -78 65t-11 94q20 80 144 164q-89 79 -23 179q57 86 154 125q74 30 142 -35q40 -38 47 -85.5t-26 -100.5zM311 529q-64 -42 -88 -85t-2 -71
q77 50 99.5 87t-9.5 69zM217 247q-69 -46 -95 -98q-12 -27 -8.5 -42.5t16.5 -21.5q16 -7 40 7t43 44q45 72 4 111z" />
    <glyph glyph-name="nine" unicode="9" horiz-adv-x="406" 
d="M156 208q-24 4 -34 9q-84 35 -87 118q-3 73 35 151t90 118q73 54 156 14q56 -26 81.5 -63t22.5 -95q-5 -99 -93.5 -238.5t-203.5 -223.5q-33 -25 -56 -11q-33 18 -51 36q-23 23 2 42q75 62 138 143zM230 322q41 74 53.5 132t-7.5 66q-18 8 -46.5 -23t-49.5 -76
q-19 -42 -20.5 -75t17.5 -43q22 -10 53 19z" />
    <glyph glyph-name="colon" unicode=":" horiz-adv-x="246" 
d="M57 321q6 37 35.5 58.5t66.5 8.5q22 -8 33 -24.5t10 -33.5t-6 -33q-9 -22 -29 -40.5t-47 -19.5q-32 -1 -51 23t-12 61zM-23 70q10 34 37.5 52t61.5 7q22 -7 33 -26.5t9.5 -38.5t-4.5 -35q-10 -28 -34.5 -43t-51.5 -8q-29 7 -45 31.5t-6 60.5z" />
    <glyph glyph-name="semicolon" unicode=";" horiz-adv-x="260" 
d="M61 321q6 36 35.5 58t66.5 9q33 -11 41 -41t-3 -50q-7 -20 -28 -39.5t-49 -20.5q-31 -1 -50 23t-13 61zM31 -102q-21 -21 -43 -22q-23 -1 -55 11q-25 9 -10 34q71 116 101 173q14 26 42 10q35 -20 51 -43q15 -20 0 -47q-32 -60 -86 -116z" />
    <glyph glyph-name="semicolon" unicode="&#x37e;" horiz-adv-x="260" 
d="M61 321q6 36 35.5 58t66.5 9q33 -11 41 -41t-3 -50q-7 -20 -28 -39.5t-49 -20.5q-31 -1 -50 23t-13 61zM31 -102q-21 -21 -43 -22q-23 -1 -55 11q-25 9 -10 34q71 116 101 173q14 26 42 10q35 -20 51 -43q15 -20 0 -47q-32 -60 -86 -116z" />
    <glyph glyph-name="less" unicode="&#x3c;" horiz-adv-x="348" 
d="M305 375q-59 -24 -145 -66q65 -34 91 -52q22 -16 17 -40q-6 -28 -15 -49q-11 -24 -33 -10q-89 54 -185 99q-16 7 -7 37q9 34 15 49q9 23 30 37q73 45 171 79q27 9 43 -10q18 -21 30 -42q13 -22 -12 -32z" />
    <glyph glyph-name="equal" unicode="=" horiz-adv-x="436" 
d="M117 332q-29 -3 -40 20q-12 24 -17 53q-5 28 25 32q139 18 278 4q28 -3 35 -26q9 -27 12 -49q1 -14 -4 -19t-19 -4q-134 4 -270 -11zM88 160q-29 -6 -41 17q-10 18 -21 52q-8 28 22 34q142 27 278 24q27 0 36 -24q9 -20 15 -48q3 -13 -2 -18.5t-19 -6.5q-138 -5 -268 -30
z" />
    <glyph glyph-name="greater" unicode="&#x3e;" horiz-adv-x="370" 
d="M341 331q-12 -35 -22 -57q-7 -14 -14.5 -21t-22.5 -11q-95 -30 -177 -69q-21 -11 -38 5q-22 20 -39 51q-11 21 13 32q59 29 159 61q-48 24 -89 41q-14 5 -19 11t-6 21q0 36 7 63q6 23 31 13q108 -43 204 -101q22 -12 13 -39z" />
    <glyph glyph-name="question" unicode="?" horiz-adv-x="453" 
d="M110 165q-20 14 -13 52q7 36 24.5 66.5t48 57.5t43.5 36.5t46 31.5q87 58 87 107q0 12 -7.5 18.5t-17.5 6.5t-21 -4t-24.5 -13t-22.5 -16t-26.5 -21t-24.5 -20q-25 -20 -56.5 -22.5t-59.5 12.5q-16 8 -16 22.5t23 44.5q77 102 171 123q53 11 93.5 -9.5t62.5 -55.5
q69 -112 -19 -212q-21 -24 -69.5 -54t-84 -65.5t-49.5 -92.5q-6 -26 -32 -19q-32 9 -56 26zM39 54q7 34 36 52t67 4q24 -8 35 -25.5t9 -34t-5 -31.5q-9 -26 -32.5 -40.5t-54.5 -10.5q-29 4 -46 27.5t-9 58.5z" />
    <glyph glyph-name="at" unicode="@" horiz-adv-x="595" 
d="M544 250q-36 -96 -84 -125t-96 -12q-34 11 -48 44q-40 -37 -94 -16q-24 9 -39.5 27.5t-21.5 55t16 88.5q32 80 86.5 126.5t100.5 29.5q35 -13 41 -57q19 -14 23 -27t-3 -31q-2 -6 -10.5 -30t-15.5 -45.5t-15.5 -49t-9.5 -41.5t2 -23q8 -9 23.5 2.5t34.5 44t35 78.5
q17 46 22.5 93t-11.5 97t-65 71q-69 31 -155 -23.5t-132 -177.5q-23 -61 -25.5 -112t11 -82t31.5 -50t37 -25q19 -7 45.5 -8t37.5 -4q37 -10 51 -34q11 -19 -7 -25q-60 -22 -136 9q-37 15 -68.5 43.5t-55.5 75.5t-24.5 109t24.5 143q25 73 71.5 126t99.5 75.5t111.5 26.5
t107.5 -20q65 -28 98.5 -86.5t31.5 -124.5t-25 -136zM366 397q0 16 -11 21q-7 3 -25 -12.5t-40 -46.5t-35 -64q-13 -34 -17 -58t-0.5 -34t11.5 -12q14 -4 33.5 22.5t41 74t42.5 109.5z" />
    <glyph glyph-name="A" unicode="A" horiz-adv-x="479" 
d="M295 155q-140 -24 -187 -37q-29 -55 -59 -114q-8 -16 -16 -18.5t-22 4.5q-35 19 -48 33q-18 21 -2 58q48 107 133 264t149 260q25 41 69 37q53 -3 127 -28q29 -11 23 -50q-30 -210 -54 -552q-1 -17 -6.5 -23t-22.5 -6q-39 0 -62 9q-26 10 -26 50q0 27 4 113zM185 263
q77 12 117 15q10 126 23 232q-61 -103 -140 -247z" />
    <glyph glyph-name="B" unicode="B" 
d="M351 303q49 -32 51 -98q1 -60 -53 -110q-36 -34 -96 -66.5t-110 -47.5q-27 -9 -41 -7.5t-32 15.5q-28 22 -61 57q-17 20 -20.5 33t3.5 42q17 75 111 368q-12 22 -21 45q-7 18 -4.5 29.5t18.5 19.5q52 28 120.5 45t134.5 13t93 -36q41 -51 46 -112q5 -71 -67 -136
q-30 -27 -72 -54zM194 356q76 28 128 74.5t48 70.5q-2 11 -18.5 14.5t-46.5 -3t-64 -23.5q-26 -71 -47 -133zM152 232q-3 -10 -17.5 -55.5t-21.5 -69.5q71 22 116.5 56t42.5 61q-1 11 -16 17.5t-43 5t-61 -14.5z" />
    <glyph glyph-name="C" unicode="C" horiz-adv-x="428" 
d="M333 172q22 -8 22.5 -25.5t-13.5 -41.5q-25 -50 -77 -96q-21 -18 -53 -27.5t-61 -6.5q-50 5 -98 33q-42 26 -55 68q-32 104 30 273t167 259q48 40 101 35q32 -3 66 -17t53 -32q34 -31 32 -89q-2 -72 -25 -129q-5 -15 -12 -20t-25 -1q-38 9 -54 29t-18 56q0 11 3 34.5
t1.5 37t-11.5 17.5q-21 9 -69 -65.5t-75 -148.5q-29 -78 -36 -145.5t18 -81.5q26 -10 86 57q43 48 103 27z" />
    <glyph glyph-name="D" unicode="D" horiz-adv-x="489" 
d="M100 494q-18 36 -23 50q-8 18 -5.5 29t18.5 20q40 23 92 35t108 10t104.5 -34.5t70.5 -94.5q14 -39 14 -86t-13 -96.5t-41.5 -100t-68 -96t-97 -84.5t-125.5 -64q-39 -15 -70 8q-30 24 -57 53q-17 18 -20.5 31.5t4.5 54.5q46 170 109 365zM118 115q55 27 99.5 67t69 79.5
t41.5 81t17.5 71.5t-3.5 51q-9 24 -34.5 34t-65.5 -2q-61 -166 -124 -382z" />
    <glyph glyph-name="E" unicode="E" horiz-adv-x="385" 
d="M102 506q-15 26 -24 66q-3 14 0.5 19.5t16.5 8.5q111 32 289 38q31 1 39 -28q9 -27 12 -56q1 -17 -5 -24t-22 -8q-89 -10 -157 -21q-7 -20 -24.5 -66.5t-26.5 -70.5q34 5 77 7q32 1 41 -23q11 -33 14 -58q2 -16 -3 -22.5t-22 -10.5q-111 -22 -158 -34q-22 -62 -31 -91
q61 12 120 16q33 3 42 -22q12 -32 15 -59q2 -16 -2.5 -23t-21.5 -11q-133 -30 -175 -42q-41 -12 -63 11q-21 20 -40 43q-20 26 -12 65q23 101 121 396z" />
    <glyph glyph-name="F" unicode="F" horiz-adv-x="380" 
d="M407 522q-61 -8 -158 -22q-5 -14 -48 -135q48 6 74 7q31 1 41 -23q8 -20 14 -58q2 -17 -3 -23.5t-22 -9.5q-88 -16 -150 -32q-41 -124 -69 -218q-9 -29 -39 -20q-40 11 -62 27q-13 9 -15.5 21.5t1.5 33.5q11 59 50 190t80 248q-12 21 -23 64q-3 14 0.5 19t16.5 9
q103 30 282 38q17 1 26 -4.5t16 -22.5q13 -29 14 -58q1 -17 -4.5 -23t-21.5 -8z" />
    <glyph glyph-name="G" unicode="G" horiz-adv-x="442" 
d="M426 373q-5 -14 -12 -19t-22 -3q-79 11 -77 87q0 8 1 22t1.5 23.5t0.5 20t-2.5 16.5t-6.5 7q-22 7 -67.5 -56.5t-82.5 -150.5q-32 -75 -39 -148t18 -87q21 -9 51.5 24t57.5 89q-38 -2 -57 17t-24 61q-1 13 4.5 18.5t19.5 8.5q53 14 122 23q39 5 57 -19q11 -16 23 -40
q14 -30 -1 -65q-58 -140 -142 -199q-51 -36 -110 -25q-51 9 -94 38q-39 28 -51 74q-19 71 4.5 175t81 203t129.5 152q39 29 97 21q68 -9 108 -49q30 -30 32 -87q2 -65 -20 -132z" />
    <glyph glyph-name="H" unicode="H" horiz-adv-x="452" 
d="M498 553q-80 -221 -176 -549q-4 -16 -11 -20.5t-23 0.5q-41 12 -61 28q-22 18 -14 55q10 48 38 150q-84 -14 -107 -19q-32 -105 -57 -193q-4 -16 -11.5 -20.5t-23.5 0.5q-36 11 -62 29q-13 10 -16.5 21.5t1.5 33.5q12 58 39 156q-5 11 -15 45q-3 15 0 20t16 9l21 6
q59 209 93 301q7 19 17.5 23.5t25.5 -2.5q42 -15 71 -38q15 -12 17.5 -21.5t-3.5 -26.5q-32 -85 -71 -209q71 8 101 10q52 172 87 274q6 19 17 23t27 -2q38 -13 67 -36q14 -11 16.5 -21t-3.5 -27z" />
    <glyph glyph-name="I" unicode="I" horiz-adv-x="208" 
d="M234 589q15 -12 17.5 -21.5t-3.5 -26.5q-80 -216 -170 -536q-4 -16 -11.5 -20.5t-23.5 0.5q-35 10 -62 29q-13 10 -16.5 21.5t1.5 33.5q18 85 69 264t84 273q12 31 44 21q37 -12 71 -38z" />
    <glyph glyph-name="J" unicode="J" horiz-adv-x="418" 
d="M91 -13q-85 28 -101 116q-9 52 11 119q17 59 53 40q68 -35 62 -97q-5 -40 -2.5 -58.5t17.5 -19.5q19 -2 46 54.5t54 144.5t49 170t38 155q8 32 43 22q43 -12 73 -35q15 -11 17.5 -20.5t-1.5 -26.5q-107 -459 -219 -543q-61 -46 -140 -21z" />
    <glyph glyph-name="K" unicode="K" horiz-adv-x="443" 
d="M251 243q47 -112 90 -189q14 -24 -12 -40q-14 -8 -45 -17q-44 -11 -68 26q-51 82 -86 162q-7 -24 -18.5 -62.5t-20 -67t-14.5 -50.5q-4 -16 -11 -20.5t-23 0.5q-40 11 -63 29q-22 17 -14 55q18 88 70.5 271.5t85.5 274.5q12 31 43 21q37 -12 71 -38q15 -12 18 -21t-4 -26
q-19 -50 -61 -180q170 180 232 256q20 24 41 2q24 -26 33 -59q8 -28 -14 -63q-56 -90 -230 -264z" />
    <glyph glyph-name="L" unicode="L" horiz-adv-x="355" 
d="M259 34q-130 -30 -175 -43q-33 -7 -42.5 -4t-20.5 15q-21 19 -41 43q-20 25 -12 61q22 95 72 254t90 257q7 17 18 21.5t26 -1.5q47 -15 72 -36q14 -12 16.5 -21.5t-4.5 -26.5q-74 -195 -146 -419q50 10 114 15q32 3 42 -22q12 -30 15 -59q3 -17 -1 -23.5t-23 -10.5z" />
    <glyph glyph-name="M" unicode="M" horiz-adv-x="616" 
d="M185 381q-66 -211 -110 -376q-4 -16 -11.5 -21t-22.5 -1q-30 8 -58 27q-24 17 -17 55q17 86 67.5 258t87.5 278q7 21 18 27t32 3q44 -7 92 -28q23 -10 29.5 -24.5t6.5 -43.5q-1 -29 -1 -224q87 164 172 301q14 23 31 27t41 -4q59 -17 100 -39q30 -16 16 -55
q-33 -96 -85.5 -269.5t-76.5 -261.5q-9 -33 -36 -25q-32 8 -57 26q-24 16 -16 55q23 113 90 326q-147 -268 -180 -332q-10 -18 -15.5 -22.5t-21.5 -0.5q-20 4 -44 15q-14 8 -20.5 18.5t-7.5 36.5q-6 117 -3 274z" />
    <glyph glyph-name="N" unicode="N" horiz-adv-x="468" 
d="M291 262q42 168 102 344q11 33 44 22q32 -10 60 -29q25 -16 12 -53q-76 -230 -159 -532q-8 -34 -42 -24q-29 7 -60 24q-27 14 -35 50q-24 101 -36 282q-15 -52 -51.5 -174t-48.5 -165q-4 -16 -11 -20t-23 1q-41 12 -63 30q-21 16 -13 55q15 68 67.5 249.5t87.5 281.5
q12 34 47 24q46 -14 80 -33q17 -8 23 -21t7 -38q2 -108 12 -274z" />
    <glyph glyph-name="O" unicode="O" 
d="M414 587q37 -37 40 -96q6 -111 -38 -249t-124 -216q-52 -50 -128 -41q-57 7 -96 34q-38 26 -51 72q-33 108 23.5 267t159.5 245q21 18 51.5 26.5t54.5 4.5q71 -10 108 -47zM313 521q-22 7 -65.5 -57t-71.5 -138q-28 -76 -35.5 -147t18.5 -88q27 -11 64.5 44.5t68.5 146.5
q16 48 26.5 100.5t10 93t-15.5 45.5z" />
    <glyph glyph-name="P" unicode="P" horiz-adv-x="472" 
d="M149 175q-40 -126 -53 -174q-5 -16 -12 -20t-23 0q-39 12 -60 28q-22 17 -14 55q22 108 117 411q-18 36 -23 50q-14 34 13 49q53 29 120 48.5t133 17.5t94 -37q44 -56 53 -125q8 -67 -59 -140q-44 -49 -124.5 -94t-161.5 -69zM196 318q86 31 137.5 84.5t45.5 87.5
q-1 11 -18.5 15t-46.5 -1.5t-59 -19.5q-23 -60 -59 -166z" />
    <glyph glyph-name="Q" unicode="Q" horiz-adv-x="462" 
d="M371 32q9 -14 7.5 -22.5t-15.5 -18.5q-21 -15 -50 -22q-31 -7 -50 17q-2 2 -5 6t-5 6q-35 -18 -89 -13t-96 34q-38 26 -51 72q-33 108 23.5 267t159.5 245q21 18 51.5 26.5t54.5 4.5q71 -10 108 -47q36 -36 39 -96q6 -91 -24 -206t-88 -200q25 -45 30 -53zM189 98
q-5 8 -13 24q-13 24 12 36q24 13 61 21q22 42 42 103q26 76 34.5 150.5t-12.5 88.5q-22 7 -65.5 -57t-71.5 -138q-28 -76 -35.5 -147t18.5 -88q13 -6 30 7z" />
    <glyph glyph-name="R" unicode="R" horiz-adv-x="485" 
d="M148 190q-34 -101 -58 -184q-4 -16 -11 -20t-23 0q-36 10 -54 23q-22 16 -15 55q24 118 118 411q-18 33 -24 50q-7 18 -4.5 29t17.5 20q53 29 120 48.5t133 17.5t94 -37q44 -56 53 -125q9 -74 -58 -140q-63 -61 -162 -110q52 -88 123 -172q19 -21 -3 -40q-16 -13 -43 -21
q-38 -12 -70 19q-28 25 -66 75.5t-67 100.5zM255 487q-14 -34 -61 -165q82 31 138 86t49 82q-4 18 -41 18.5t-85 -21.5z" />
    <glyph glyph-name="S" unicode="S" horiz-adv-x="401" 
d="M-32 158q24 12 51.5 10t43.5 -16q44 -38 83.5 -51t57.5 4q13 11 -6 33t-61 57.5t-61 57.5q-30 35 -37 80t15 102q21 49 63 99.5t87 78.5q53 32 103 14q56 -21 87 -57q29 -32 22 -92q-5 -35 -21 -84.5t-32 -80.5q-14 -26 -38 -15q-78 34 -65 93q2 9 7 25.5t9 30t8 29
t4.5 22.5t-2.5 11q-12 7 -46.5 -28.5t-53.5 -79.5t4 -85q11 -15 28.5 -32t33.5 -30t33 -28t29 -29.5t20 -30.5t7.5 -33.5t-10.5 -36.5q-58 -113 -171 -115q-106 -3 -186 111q-36 50 -6 66z" />
    <glyph glyph-name="T" unicode="T" horiz-adv-x="443" 
d="M472 528q-18 -2 -57.5 -6t-51.5 -5q-88 -253 -161 -515q-5 -16 -11.5 -19.5t-22.5 0.5q-36 10 -62 29q-23 16 -14 56q33 165 120 428q-52 -9 -63 -12q-28 -7 -43 16q-15 22 -28 72q-4 14 0 19.5t17 8.5q157 35 337 39q27 0 38 -16q20 -31 25 -66q2 -16 -2 -22t-21 -7z
" />
    <glyph glyph-name="U" unicode="U" horiz-adv-x="451" 
d="M10 85q-9 27 -10 63.5t9 83.5t20 86.5t31 99t33.5 92t35.5 92.5q12 31 44 19q39 -15 60 -36q28 -27 12 -67q-159 -406 -100 -426q70 -24 216 516q9 33 43 22q35 -11 67 -36q14 -11 16.5 -20.5t-2.5 -26.5q-63 -235 -114.5 -364t-117.5 -174q-40 -28 -103 -25
q-52 3 -94 34q-31 23 -46 67z" />
    <glyph glyph-name="V" unicode="V" horiz-adv-x="466" 
d="M508 539q-31 -83 -111.5 -252.5t-141.5 -283.5q-21 -39 -61 -25q-36 13 -80 40q-39 25 -41 81q-9 183 15 498q2 18 7.5 24.5t21.5 6.5q30 0 60 -12q35 -15 34 -58q-1 -33 -6 -166.5t-7 -217.5q62 126 209 444q13 30 44 15q33 -16 52 -36t5 -58z" />
    <glyph glyph-name="W" unicode="W" horiz-adv-x="641" 
d="M145 212q131 258 184 340q14 25 43 18q13 -3 53 -21q15 -7 18 -17t-1 -30q-1 -12 -48 -284q135 288 195 395q11 19 20.5 22t25.5 -6q27 -14 50 -35q22 -23 2 -65q-154 -304 -252 -527q-14 -32 -53 -22q-30 7 -67 23q-32 15 -30 55q0 106 10 207q-81 -146 -143 -266
q-9 -17 -18.5 -20.5t-26.5 -0.5q-38 9 -72 25q-25 11 -22 53q6 97 29.5 261t47.5 282q4 19 12 25.5t25 2.5q43 -10 67 -26q24 -17 13 -71q-3 -15 -26 -132.5t-36 -185.5z" />
    <glyph glyph-name="X" unicode="X" horiz-adv-x="472" 
d="M258 454q100 125 142 174q23 26 50 5q23 -19 42 -59q15 -30 -10 -62q-72 -83 -184 -222q48 -198 66 -269q9 -31 -18 -35q-33 -5 -70 0q-30 4 -44 41q-8 22 -41 145q-63 -81 -141 -183q-20 -25 -44 -4q-23 19 -43 53q-16 24 6 56q55 85 181 239q-50 206 -60 253
q-4 19 1.5 27.5t22.5 10.5q45 2 71 -1q34 -4 44 -44q11 -47 29 -125z" />
    <glyph glyph-name="Y" unicode="Y" horiz-adv-x="434" 
d="M472 537q-42 -83 -223 -348q-28 -88 -59 -194q-4 -16 -11.5 -20t-23.5 1q-39 12 -61 30q-23 19 -14 56q13 57 46 178q-14 112 -52 362q-2 17 2.5 23.5t20.5 8.5q41 6 68 -1q27 -6 35 -45q16 -82 32 -205q63 95 154 243q9 15 18.5 17t23.5 -7q31 -19 46 -41q16 -22 -2 -58
z" />
    <glyph glyph-name="Z" unicode="Z" horiz-adv-x="375" 
d="M261 501q-74 -13 -93 -17q-36 -7 -51 20q-18 35 -24 67q-3 14 0.5 20t16.5 10q120 30 271 34q30 1 38 -25q8 -29 13 -56q5 -34 -14 -58q-146 -179 -298 -379q57 14 100 20q38 5 47 -22q12 -30 15 -59q1 -16 -4 -23t-22 -10q-135 -31 -183 -45q-40 -11 -62 10
q-26 28 -42 48q-25 34 -7 61q40 64 128.5 184t170.5 220z" />
    <glyph glyph-name="bracketleft" unicode="[" horiz-adv-x="304" 
d="M213 29q3 -16 -2.5 -22.5t-22.5 -9.5q-16 -3 -51 -10l-45 -9q-33 -7 -54 13q-5 5 -32 37q-20 24 -10 65q56 220 158 504q9 26 39 30q44 6 109 8q28 1 39 -28q12 -34 14 -55q1 -16 -4 -22t-21 -8q-17 -2 -78 -9q-80 -220 -137 -410q7 0 21 1.5t22 2.5q32 3 42 -23
q3 -8 13 -55z" />
    <glyph glyph-name="backslash" unicode="\" horiz-adv-x="358" 
d="M187 640q18 -4 24 -12t8 -27q6 -98 28 -292.5t39 -304.5q2 -17 -3 -23.5t-21 -8.5q-20 -3 -55 1q-15 2 -22.5 12t-12.5 33q-19 86 -47.5 290t-35.5 301q-3 35 31 36q36 2 67 -5z" />
    <glyph glyph-name="bracketright" unicode="]" horiz-adv-x="318" 
d="M327 526q-79 -210 -163 -498q-7 -25 -41 -31q-43 -7 -91 -15q-32 -5 -45 19q-13 23 -21 50q-10 29 19 36q62 14 80 17q65 218 133 411q-6 -1 -17 -2.5t-16 -1.5q-18 -2 -26.5 2.5t-13.5 19.5q-13 35 -16 55q-4 27 26 32q46 9 117 14q29 3 44 -18q24 -34 27 -40
q13 -24 4 -50z" />
    <glyph glyph-name="asciicircum" unicode="^" horiz-adv-x="447" 
d="M365 294q-28 2 -52 8q-24 7 -31 33q-12 60 -21 152q-74 -78 -129 -145q-17 -20 -33 0q-20 26 -29 44q-12 24 4 45q30 43 85.5 106.5t103.5 107.5q23 22 43 8q29 -21 41 -35q15 -17 16 -49q6 -118 24 -251q2 -14 -3 -19.5t-19 -4.5z" />
    <glyph glyph-name="underscore" unicode="_" horiz-adv-x="430" 
d="M-22 -184q-27 0 -19 27l16 48q10 26 39 26h446q16 0 21 -5.5t1 -19.5q-13 -38 -18 -50q-12 -26 -38 -26h-448z" />
    <glyph glyph-name="a" unicode="a" horiz-adv-x="479" 
d="M295 155q-140 -24 -187 -37q-29 -55 -59 -114q-8 -16 -16 -18.5t-22 4.5q-35 19 -48 33q-18 21 -2 58q48 107 133 264t149 260q25 41 69 37q53 -3 127 -28q29 -11 23 -50q-30 -210 -54 -552q-1 -17 -6.5 -23t-22.5 -6q-39 0 -62 9q-26 10 -26 50q0 27 4 113zM185 263
q77 12 117 15q10 126 23 232q-61 -103 -140 -247z" />
    <glyph glyph-name="b" unicode="b" 
d="M351 303q49 -32 51 -98q1 -60 -53 -110q-36 -34 -96 -66.5t-110 -47.5q-27 -9 -41 -7.5t-32 15.5q-28 22 -61 57q-17 20 -20.5 33t3.5 42q17 75 111 368q-12 22 -21 45q-7 18 -4.5 29.5t18.5 19.5q52 28 120.5 45t134.5 13t93 -36q41 -51 46 -112q5 -71 -67 -136
q-30 -27 -72 -54zM194 356q76 28 128 74.5t48 70.5q-2 11 -18.5 14.5t-46.5 -3t-64 -23.5q-26 -71 -47 -133zM152 232q-3 -10 -17.5 -55.5t-21.5 -69.5q71 22 116.5 56t42.5 61q-1 11 -16 17.5t-43 5t-61 -14.5z" />
    <glyph glyph-name="c" unicode="c" horiz-adv-x="428" 
d="M333 172q22 -8 22.5 -25.5t-13.5 -41.5q-25 -50 -77 -96q-21 -18 -53 -27.5t-61 -6.5q-50 5 -98 33q-42 26 -55 68q-32 104 30 273t167 259q48 40 101 35q32 -3 66 -17t53 -32q34 -31 32 -89q-2 -72 -25 -129q-5 -15 -12 -20t-25 -1q-38 9 -54 29t-18 56q0 11 3 34.5
t1.5 37t-11.5 17.5q-21 9 -69 -65.5t-75 -148.5q-29 -78 -36 -145.5t18 -81.5q26 -10 86 57q43 48 103 27z" />
    <glyph glyph-name="d" unicode="d" horiz-adv-x="489" 
d="M100 494q-18 36 -23 50q-8 18 -5.5 29t18.5 20q40 23 92 35t108 10t104.5 -34.5t70.5 -94.5q14 -39 14 -86t-13 -96.5t-41.5 -100t-68 -96t-97 -84.5t-125.5 -64q-39 -15 -70 8q-30 24 -57 53q-17 18 -20.5 31.5t4.5 54.5q46 170 109 365zM118 115q55 27 99.5 67t69 79.5
t41.5 81t17.5 71.5t-3.5 51q-9 24 -34.5 34t-65.5 -2q-61 -166 -124 -382z" />
    <glyph glyph-name="e" unicode="e" horiz-adv-x="385" 
d="M102 506q-15 26 -24 66q-3 14 0.5 19.5t16.5 8.5q111 32 289 38q31 1 39 -28q9 -27 12 -56q1 -17 -5 -24t-22 -8q-89 -10 -157 -21q-7 -20 -24.5 -66.5t-26.5 -70.5q34 5 77 7q32 1 41 -23q11 -33 14 -58q2 -16 -3 -22.5t-22 -10.5q-111 -22 -158 -34q-22 -62 -31 -91
q61 12 120 16q33 3 42 -22q12 -32 15 -59q2 -16 -2.5 -23t-21.5 -11q-133 -30 -175 -42q-41 -12 -63 11q-21 20 -40 43q-20 26 -12 65q23 101 121 396z" />
    <glyph glyph-name="f" unicode="f" horiz-adv-x="380" 
d="M407 522q-61 -8 -158 -22q-5 -14 -48 -135q48 6 74 7q31 1 41 -23q8 -20 14 -58q2 -17 -3 -23.5t-22 -9.5q-88 -16 -150 -32q-41 -124 -69 -218q-9 -29 -39 -20q-40 11 -62 27q-13 9 -15.5 21.5t1.5 33.5q11 59 50 190t80 248q-12 21 -23 64q-3 14 0.5 19t16.5 9
q103 30 282 38q17 1 26 -4.5t16 -22.5q13 -29 14 -58q1 -17 -4.5 -23t-21.5 -8z" />
    <glyph glyph-name="g" unicode="g" horiz-adv-x="442" 
d="M426 373q-5 -14 -12 -19t-22 -3q-79 11 -77 87q0 8 1 22t1.5 23.5t0.5 20t-2.5 16.5t-6.5 7q-22 7 -67.5 -56.5t-82.5 -150.5q-32 -75 -39 -148t18 -87q21 -9 51.5 24t57.5 89q-38 -2 -57 17t-24 61q-1 13 4.5 18.5t19.5 8.5q53 14 122 23q39 5 57 -19q11 -16 23 -40
q14 -30 -1 -65q-58 -140 -142 -199q-51 -36 -110 -25q-51 9 -94 38q-39 28 -51 74q-19 71 4.5 175t81 203t129.5 152q39 29 97 21q68 -9 108 -49q30 -30 32 -87q2 -65 -20 -132z" />
    <glyph glyph-name="h" unicode="h" horiz-adv-x="452" 
d="M498 553q-80 -221 -176 -549q-4 -16 -11 -20.5t-23 0.5q-41 12 -61 28q-22 18 -14 55q10 48 38 150q-84 -14 -107 -19q-32 -105 -57 -193q-4 -16 -11.5 -20.5t-23.5 0.5q-36 11 -62 29q-13 10 -16.5 21.5t1.5 33.5q12 58 39 156q-5 11 -15 45q-3 15 0 20t16 9l21 6
q59 209 93 301q7 19 17.5 23.5t25.5 -2.5q42 -15 71 -38q15 -12 17.5 -21.5t-3.5 -26.5q-32 -85 -71 -209q71 8 101 10q52 172 87 274q6 19 17 23t27 -2q38 -13 67 -36q14 -11 16.5 -21t-3.5 -27z" />
    <glyph glyph-name="i" unicode="i" horiz-adv-x="208" 
d="M234 589q15 -12 17.5 -21.5t-3.5 -26.5q-80 -216 -170 -536q-4 -16 -11.5 -20.5t-23.5 0.5q-35 10 -62 29q-13 10 -16.5 21.5t1.5 33.5q18 85 69 264t84 273q12 31 44 21q37 -12 71 -38z" />
    <glyph glyph-name="j" unicode="j" horiz-adv-x="418" 
d="M91 -13q-85 28 -101 116q-9 52 11 119q17 59 53 40q68 -35 62 -97q-5 -40 -2.5 -58.5t17.5 -19.5q19 -2 46 54.5t54 144.5t49 170t38 155q8 32 43 22q43 -12 73 -35q15 -11 17.5 -20.5t-1.5 -26.5q-107 -459 -219 -543q-61 -46 -140 -21z" />
    <glyph glyph-name="k" unicode="k" horiz-adv-x="443" 
d="M251 243q47 -112 90 -189q14 -24 -12 -40q-14 -8 -45 -17q-44 -11 -68 26q-51 82 -86 162q-7 -24 -18.5 -62.5t-20 -67t-14.5 -50.5q-4 -16 -11 -20.5t-23 0.5q-40 11 -63 29q-22 17 -14 55q18 88 70.5 271.5t85.5 274.5q12 31 43 21q37 -12 71 -38q15 -12 18 -21t-4 -26
q-19 -50 -61 -180q170 180 232 256q20 24 41 2q24 -26 33 -59q8 -28 -14 -63q-56 -90 -230 -264z" />
    <glyph glyph-name="l" unicode="l" horiz-adv-x="355" 
d="M259 34q-130 -30 -175 -43q-33 -7 -42.5 -4t-20.5 15q-21 19 -41 43q-20 25 -12 61q22 95 72 254t90 257q7 17 18 21.5t26 -1.5q47 -15 72 -36q14 -12 16.5 -21.5t-4.5 -26.5q-74 -195 -146 -419q50 10 114 15q32 3 42 -22q12 -30 15 -59q3 -17 -1 -23.5t-23 -10.5z" />
    <glyph glyph-name="m" unicode="m" horiz-adv-x="616" 
d="M185 381q-66 -211 -110 -376q-4 -16 -11.5 -21t-22.5 -1q-30 8 -58 27q-24 17 -17 55q17 86 67.5 258t87.5 278q7 21 18 27t32 3q44 -7 92 -28q23 -10 29.5 -24.5t6.5 -43.5q-1 -29 -1 -224q87 164 172 301q14 23 31 27t41 -4q59 -17 100 -39q30 -16 16 -55
q-33 -96 -85.5 -269.5t-76.5 -261.5q-9 -33 -36 -25q-32 8 -57 26q-24 16 -16 55q23 113 90 326q-147 -268 -180 -332q-10 -18 -15.5 -22.5t-21.5 -0.5q-20 4 -44 15q-14 8 -20.5 18.5t-7.5 36.5q-6 117 -3 274z" />
    <glyph glyph-name="n" unicode="n" horiz-adv-x="468" 
d="M291 262q42 168 102 344q11 33 44 22q32 -10 60 -29q25 -16 12 -53q-76 -230 -159 -532q-8 -34 -42 -24q-29 7 -60 24q-27 14 -35 50q-24 101 -36 282q-15 -52 -51.5 -174t-48.5 -165q-4 -16 -11 -20t-23 1q-41 12 -63 30q-21 16 -13 55q15 68 67.5 249.5t87.5 281.5
q12 34 47 24q46 -14 80 -33q17 -8 23 -21t7 -38q2 -108 12 -274z" />
    <glyph glyph-name="o" unicode="o" 
d="M414 587q37 -37 40 -96q6 -111 -38 -249t-124 -216q-52 -50 -128 -41q-57 7 -96 34q-38 26 -51 72q-33 108 23.5 267t159.5 245q21 18 51.5 26.5t54.5 4.5q71 -10 108 -47zM313 521q-22 7 -65.5 -57t-71.5 -138q-28 -76 -35.5 -147t18.5 -88q27 -11 64.5 44.5t68.5 146.5
q16 48 26.5 100.5t10 93t-15.5 45.5z" />
    <glyph glyph-name="p" unicode="p" horiz-adv-x="472" 
d="M149 175q-40 -126 -53 -174q-5 -16 -12 -20t-23 0q-39 12 -60 28q-22 17 -14 55q22 108 117 411q-18 36 -23 50q-14 34 13 49q53 29 120 48.5t133 17.5t94 -37q44 -56 53 -125q8 -67 -59 -140q-44 -49 -124.5 -94t-161.5 -69zM196 318q86 31 137.5 84.5t45.5 87.5
q-1 11 -18.5 15t-46.5 -1.5t-59 -19.5q-23 -60 -59 -166z" />
    <glyph glyph-name="q" unicode="q" horiz-adv-x="462" 
d="M371 32q9 -14 7.5 -22.5t-15.5 -18.5q-21 -15 -50 -22q-31 -7 -50 17q-2 2 -5 6t-5 6q-35 -18 -89 -13t-96 34q-38 26 -51 72q-33 108 23.5 267t159.5 245q21 18 51.5 26.5t54.5 4.5q71 -10 108 -47q36 -36 39 -96q6 -91 -24 -206t-88 -200q25 -45 30 -53zM189 98
q-5 8 -13 24q-13 24 12 36q24 13 61 21q22 42 42 103q26 76 34.5 150.5t-12.5 88.5q-22 7 -65.5 -57t-71.5 -138q-28 -76 -35.5 -147t18.5 -88q13 -6 30 7z" />
    <glyph glyph-name="r" unicode="r" horiz-adv-x="485" 
d="M148 190q-34 -101 -58 -184q-4 -16 -11 -20t-23 0q-36 10 -54 23q-22 16 -15 55q24 118 118 411q-18 33 -24 50q-7 18 -4.5 29t17.5 20q53 29 120 48.5t133 17.5t94 -37q44 -56 53 -125q9 -74 -58 -140q-63 -61 -162 -110q52 -88 123 -172q19 -21 -3 -40q-16 -13 -43 -21
q-38 -12 -70 19q-28 25 -66 75.5t-67 100.5zM255 487q-14 -34 -61 -165q82 31 138 86t49 82q-4 18 -41 18.5t-85 -21.5z" />
    <glyph glyph-name="s" unicode="s" horiz-adv-x="401" 
d="M-32 158q24 12 51.5 10t43.5 -16q44 -38 83.5 -51t57.5 4q13 11 -6 33t-61 57.5t-61 57.5q-30 35 -37 80t15 102q21 49 63 99.5t87 78.5q53 32 103 14q56 -21 87 -57q29 -32 22 -92q-5 -35 -21 -84.5t-32 -80.5q-14 -26 -38 -15q-78 34 -65 93q2 9 7 25.5t9 30t8 29
t4.5 22.5t-2.5 11q-12 7 -46.5 -28.5t-53.5 -79.5t4 -85q11 -15 28.5 -32t33.5 -30t33 -28t29 -29.5t20 -30.5t7.5 -33.5t-10.5 -36.5q-58 -113 -171 -115q-106 -3 -186 111q-36 50 -6 66z" />
    <glyph glyph-name="t" unicode="t" horiz-adv-x="443" 
d="M472 528q-18 -2 -57.5 -6t-51.5 -5q-88 -253 -161 -515q-5 -16 -11.5 -19.5t-22.5 0.5q-36 10 -62 29q-23 16 -14 56q33 165 120 428q-52 -9 -63 -12q-28 -7 -43 16q-15 22 -28 72q-4 14 0 19.5t17 8.5q157 35 337 39q27 0 38 -16q20 -31 25 -66q2 -16 -2 -22t-21 -7z
" />
    <glyph glyph-name="u" unicode="u" horiz-adv-x="451" 
d="M10 85q-9 27 -10 63.5t9 83.5t20 86.5t31 99t33.5 92t35.5 92.5q12 31 44 19q39 -15 60 -36q28 -27 12 -67q-159 -406 -100 -426q70 -24 216 516q9 33 43 22q35 -11 67 -36q14 -11 16.5 -20.5t-2.5 -26.5q-63 -235 -114.5 -364t-117.5 -174q-40 -28 -103 -25
q-52 3 -94 34q-31 23 -46 67z" />
    <glyph glyph-name="v" unicode="v" horiz-adv-x="466" 
d="M508 539q-31 -83 -111.5 -252.5t-141.5 -283.5q-21 -39 -61 -25q-36 13 -80 40q-39 25 -41 81q-9 183 15 498q2 18 7.5 24.5t21.5 6.5q30 0 60 -12q35 -15 34 -58q-1 -33 -6 -166.5t-7 -217.5q62 126 209 444q13 30 44 15q33 -16 52 -36t5 -58z" />
    <glyph glyph-name="w" unicode="w" horiz-adv-x="641" 
d="M145 212q131 258 184 340q14 25 43 18q13 -3 53 -21q15 -7 18 -17t-1 -30q-1 -12 -48 -284q135 288 195 395q11 19 20.5 22t25.5 -6q27 -14 50 -35q22 -23 2 -65q-154 -304 -252 -527q-14 -32 -53 -22q-30 7 -67 23q-32 15 -30 55q0 106 10 207q-81 -146 -143 -266
q-9 -17 -18.5 -20.5t-26.5 -0.5q-38 9 -72 25q-25 11 -22 53q6 97 29.5 261t47.5 282q4 19 12 25.5t25 2.5q43 -10 67 -26q24 -17 13 -71q-3 -15 -26 -132.5t-36 -185.5z" />
    <glyph glyph-name="x" unicode="x" horiz-adv-x="472" 
d="M258 454q100 125 142 174q23 26 50 5q23 -19 42 -59q15 -30 -10 -62q-72 -83 -184 -222q48 -198 66 -269q9 -31 -18 -35q-33 -5 -70 0q-30 4 -44 41q-8 22 -41 145q-63 -81 -141 -183q-20 -25 -44 -4q-23 19 -43 53q-16 24 6 56q55 85 181 239q-50 206 -60 253
q-4 19 1.5 27.5t22.5 10.5q45 2 71 -1q34 -4 44 -44q11 -47 29 -125z" />
    <glyph glyph-name="y" unicode="y" horiz-adv-x="434" 
d="M472 537q-42 -83 -223 -348q-28 -88 -59 -194q-4 -16 -11.5 -20t-23.5 1q-39 12 -61 30q-23 19 -14 56q13 57 46 178q-14 112 -52 362q-2 17 2.5 23.5t20.5 8.5q41 6 68 -1q27 -6 35 -45q16 -82 32 -205q63 95 154 243q9 15 18.5 17t23.5 -7q31 -19 46 -41q16 -22 -2 -58
z" />
    <glyph glyph-name="z" unicode="z" horiz-adv-x="375" 
d="M261 501q-74 -13 -93 -17q-36 -7 -51 20q-18 35 -24 67q-3 14 0.5 20t16.5 10q120 30 271 34q30 1 38 -25q8 -29 13 -56q5 -34 -14 -58q-146 -179 -298 -379q57 14 100 20q38 5 47 -22q12 -30 15 -59q1 -16 -4 -23t-22 -10q-135 -31 -183 -45q-40 -11 -62 10
q-26 28 -42 48q-25 34 -7 61q40 64 128.5 184t170.5 220z" />
    <glyph glyph-name="braceleft" unicode="{" horiz-adv-x="339" 
d="M249 29q2 -16 -3 -22.5t-22 -9.5t-52 -10t-44 -9q-33 -7 -55 13q-14 15 -32 37q-20 24 -10 65q17 66 41 146q-12 1 -23 19q-16 27 -24 68q-5 26 18 32t70 13q25 81 76 226q11 26 40 30q43 6 108 8q29 1 40 -28q11 -30 13 -55q2 -16 -3 -22t-22 -8q-28 -4 -78 -9
q-74 -204 -136 -410q7 0 21 1.5t22 2.5q31 3 41 -23q9 -23 14 -55z" />
    <glyph glyph-name="bar" unicode="|" horiz-adv-x="358" 
d="M314 645q15 -11 17.5 -21t-4.5 -27q-34 -91 -102.5 -308.5t-98.5 -327.5q-5 -16 -11.5 -20t-22.5 0q-24 7 -50 24q-13 9 -16 21t2 34q18 86 84 315.5t100 321.5q12 33 43 20q40 -18 59 -32z" />
    <glyph glyph-name="braceright" unicode="}" horiz-adv-x="377" 
d="M327 526q-18 -49 -58 -163q29 0 38 -28q5 -16 14 -61q3 -16 -2.5 -23t-22.5 -9q-51 -7 -70 -10q-39 -121 -62 -204q-7 -25 -42 -31q-43 -7 -91 -15q-31 -5 -44 19q-13 23 -21 50q-9 28 19 36q33 10 80 17q65 218 133 411q-6 -1 -17 -2.5t-16 -1.5q-18 -2 -26.5 2.5
t-14.5 19.5q-13 42 -16 55q-5 26 27 32q46 9 117 14q29 3 44 -18q24 -34 27 -40q13 -24 4 -50z" />
    <glyph glyph-name="nbspace" unicode="&#xa0;" horiz-adv-x="241" 
 />
    <glyph glyph-name="endash" unicode="&#x2013;" horiz-adv-x="476" 
d="M56 342q130 22 300 22q35 0 47 -26q12 -27 17 -54q2 -15 -4.5 -20t-27.5 -6q-156 -7 -277 -27q-35 -6 -53 19q-23 32 -30 54q-10 32 28 38z" />
    <glyph glyph-name="emdash" unicode="&#x2014;" horiz-adv-x="555" 
d="M61 342q158 22 361 22q44 0 57 -26q10 -20 19 -54q4 -15 -4.5 -20t-32.5 -6q-187 -7 -333 -27q-42 -6 -64 19q-24 27 -36 54q-13 32 33 38z" />
    <glyph glyph-name="quoteleft" unicode="&#x2018;" horiz-adv-x="262" 
d="M154 502q-31 75 -38 159q-2 35 18 50q17 13 46 23q31 11 34 -20q10 -97 38 -235q4 -15 -2 -21.5t-20 -4.5q-22 3 -44 12q-22 10 -32 37z" />
    <glyph glyph-name="quoteright" unicode="&#x2019;" horiz-adv-x="232" 
d="M211 503q-15 -26 -36 -33q-21 -6 -46 -6q-14 -1 -19 6t0 22q42 125 66 229q7 29 36 16q28 -14 43 -29q18 -18 12 -52q-16 -78 -56 -153z" />
    <glyph glyph-name="quotedblleft" unicode="&#x201c;" horiz-adv-x="388" 
d="M147 509q-15 26 -31.5 72t-23.5 81q-6 35 12 52q13 13 43 28q29 15 36 -16q19 -87 64 -229q4 -15 0 -22t-18 -6q-29 2 -46 7q-20 6 -36 33zM291 502q-31 75 -38 159q-3 34 18 50q17 13 46 23q31 11 34 -20q11 -97 38 -235q4 -15 -2 -21.5t-20 -4.5q-22 3 -44 12
q-19 8 -32 37z" />
    <glyph glyph-name="quotedblright" unicode="&#x201d;" horiz-adv-x="384" 
d="M211 503q-15 -26 -36 -33q-21 -6 -46 -6q-14 -1 -19 6t0 22q42 125 66 229q7 29 36 16q28 -14 43 -29q18 -18 12 -52q-16 -78 -56 -153zM354 493q-18 -25 -39 -29q-26 -4 -47 -1q-28 3 -15 30q59 125 91 220q11 28 38 12q26 -18 39 -33q17 -20 6 -53q-10 -34 -32.5 -77.5
t-40.5 -68.5z" />
    <glyph glyph-name="ellipsis" unicode="&#x2026;" horiz-adv-x="751" 
d="M517 61q6 37 35.5 58.5t66.5 8.5q22 -8 33 -24.5t10 -33.5t-6 -33q-9 -22 -29 -40.5t-47 -19.5q-32 -1 -51 23t-12 61zM252 61q6 37 35.5 58.5t66.5 8.5q22 -8 33 -24.5t10 -33.5t-6 -33q-9 -22 -29 -40.5t-47 -19.5q-32 -1 -51 23t-12 61zM-13 61q6 37 35.5 58.5
t66.5 8.5q22 -8 33 -24.5t10 -33.5t-6 -33q-9 -22 -29 -40.5t-47 -19.5q-32 -1 -51 23t-12 61z" />
    <glyph glyph-name="CR" horiz-adv-x="241" 
 />
    </font>
</defs>
</svg>
